<svg width="128" height="128" viewBox="0 0 128 128" fill="none" xmlns="http://www.w3.org/2000/svg">
<g clip-path="url(#clip0_20_274)">
<path fill-rule="evenodd" clip-rule="evenodd" d="M7.04321 93.2172C25.4084 89.2909 44.4629 87.2244 64 87.2244C83.5372 87.2244 102.592 89.2909 120.957 93.2172C125.459 84.4583 128 74.5259 128 64C128 28.6538 99.3462 0 64 0C28.6538 0 0 28.6538 0 64C0 74.5259 2.54107 84.4583 7.04321 93.2172Z" fill="#733C3C"/>
<circle cx="79.6805" cy="78.2968" r="29.3156" fill="#FF6C6C"/>
<path d="M84.2102 49.329L93.0393 6.95209C87.9808 4.37201 82.5337 2.44495 76.809 1.28204L79.5017 48.9818C79.5613 48.9814 79.6208 48.9812 79.6805 48.9812C81.2211 48.9812 82.7339 49.1 84.2102 49.329Z" fill="#9B4A4A"/>
<path d="M97.1499 54.7526C95.8669 53.7991 94.5035 52.9479 93.0714 52.2113L109.718 19.2128C113.109 22.6746 116.111 26.52 118.652 30.6779L97.1499 54.7526Z" fill="#9B4A4A"/>
<path d="M106.266 65.9266C105.552 64.395 104.71 62.9352 103.753 61.5613L125.757 47.145C126.784 50.9147 127.474 54.8229 127.795 58.8354L106.266 65.9266Z" fill="#9B4A4A"/>
<path d="M108.898 80.7082C108.963 79.9129 108.996 79.1087 108.996 78.2968C108.996 77.3031 108.947 76.321 108.85 75.3527L127.173 74.3184C126.633 77.6461 125.837 80.8878 124.806 84.0224L108.898 80.7082Z" fill="#9B4A4A"/>
<path d="M51.2666 71.0535C50.8324 72.762 50.5482 74.5305 50.429 76.3439L1.78918 79.0897C0.619629 74.2511 0 69.1979 0 64C0 62.7896 0.0335693 61.587 0.0999756 60.3932L51.2666 71.0535Z" fill="#9B4A4A"/>
<path d="M55.2296 62.1183L5.85864 37.2128C8.62 31.2292 12.2778 25.7443 16.66 20.9304L58.3611 58.1749C57.209 59.3951 56.1604 60.7144 55.2296 62.1183Z" fill="#9B4A4A"/>
<path d="M65.8978 52.4167L35.8273 6.51837C41.4478 3.75848 47.5322 1.79858 53.9323 0.787354L70.3103 50.5107C68.7789 51.0269 67.3042 51.6661 65.8978 52.4167Z" fill="#9B4A4A"/>
<path d="M120.957 93.2172C110.341 113.871 88.8203 128 64 128C39.1797 128 17.6594 113.871 7.04321 93.2172C25.4084 89.2909 44.4629 87.2244 64 87.2244C83.5372 87.2244 102.592 89.2909 120.957 93.2172Z" fill="#1F1818"/>
</g>
<defs>
<clipPath id="clip0_20_274">
<rect width="128" height="128" fill="white"/>
</clipPath>
</defs>
</svg>
