<svg width="129" height="128" viewBox="0 0 129 128" fill="none" xmlns="http://www.w3.org/2000/svg">
<g clip-path="url(#clip0_20_267)">
<path fill-rule="evenodd" clip-rule="evenodd" d="M7.86816 93.2172C26.2333 89.2909 45.2878 87.2244 64.825 87.2244C84.3621 87.2244 103.417 89.2909 121.782 93.2172C126.284 84.4583 128.825 74.5259 128.825 64C128.825 28.6538 100.171 0 64.825 0C29.4787 0 0.824951 28.6538 0.824951 64C0.824951 74.5259 3.36602 84.4583 7.86816 93.2172Z" fill="#585858"/>
<circle cx="80.5055" cy="78.2968" r="29.3156" fill="#B6B6B6"/>
<path d="M85.0352 49.329L93.8643 6.95209C88.8058 4.37201 83.3586 2.44495 77.6339 1.28204L80.3267 48.9818C80.3862 48.9814 80.4458 48.9812 80.5055 48.9812C82.046 48.9812 83.5588 49.1 85.0352 49.329Z" fill="#737373"/>
<path d="M97.9749 54.7526C96.6919 53.7991 95.3285 52.9479 93.8964 52.2113L110.543 19.2128C113.934 22.6746 116.936 26.52 119.477 30.6779L97.9749 54.7526Z" fill="#737373"/>
<path d="M107.091 65.9266C106.377 64.395 105.535 62.9352 104.578 61.5613L126.582 47.145C127.609 50.9147 128.299 54.8229 128.62 58.8354L107.091 65.9266Z" fill="#737373"/>
<path d="M109.723 80.7082C109.788 79.9129 109.821 79.1087 109.821 78.2968C109.821 77.3031 109.772 76.321 109.675 75.3527L127.998 74.3184C127.458 77.6461 126.662 80.8878 125.63 84.0224L109.723 80.7082Z" fill="#737373"/>
<path d="M52.0916 71.0535C51.6573 72.762 51.3732 74.5305 51.2539 76.3439L2.61414 79.0897C1.44458 74.2511 0.824951 69.1979 0.824951 64C0.824951 62.7896 0.858521 61.587 0.924927 60.3932L52.0916 71.0535Z" fill="#737373"/>
<path d="M56.0546 62.1183L6.68359 37.2128C9.44495 31.2292 13.1028 25.7443 17.485 20.9304L59.186 58.1749C58.0339 59.3951 56.9854 60.7144 56.0546 62.1183Z" fill="#737373"/>
<path d="M66.7228 52.4167L36.6522 6.51837C42.2727 3.75848 48.3572 1.79858 54.7572 0.787354L71.1353 50.5107C69.6039 51.0269 68.1292 51.6661 66.7228 52.4167Z" fill="#737373"/>
<path d="M121.782 93.2172C111.166 113.871 89.6453 128 64.825 128C40.0046 128 18.4843 113.871 7.86816 93.2172C26.2333 89.2909 45.2878 87.2244 64.825 87.2244C84.3621 87.2244 103.417 89.2909 121.782 93.2172Z" fill="#1C1C1C"/>
</g>
<defs>
<clipPath id="clip0_20_267">
<rect width="128" height="128" fill="white" transform="translate(0.824951)"/>
</clipPath>
</defs>
</svg>
